<?xml version="1.0" encoding="UTF-8" standalone="no"?>
<svg
   xmlns:dc="http://purl.org/dc/elements/1.1/"
   xmlns:cc="http://creativecommons.org/ns#"
   xmlns:rdf="http://www.w3.org/1999/02/22-rdf-syntax-ns#"
   xmlns:svg="http://www.w3.org/2000/svg"
   xmlns="http://www.w3.org/2000/svg"
   xmlns:sodipodi="http://sodipodi.sourceforge.net/DTD/sodipodi-0.dtd"
   xmlns:inkscape="http://www.inkscape.org/namespaces/inkscape"
   version="1.1"
   id="Layer_1"
   x="0px"
   y="0px"
   viewBox="0 0 1000 1000"
   style="enable-background:new 0 0 1000 1000;"
   xml:space="preserve"
   sodipodi:docname="tempcheck.svg"
   inkscape:version="1.0 (9f2f71dc58, 2020-08-02)"><metadata
   id="metadata77"><rdf:RDF><cc:Work
       rdf:about=""><dc:format>image/svg+xml</dc:format><dc:type
         rdf:resource="http://purl.org/dc/dcmitype/StillImage" /></cc:Work></rdf:RDF></metadata><defs
   id="defs75">
	
	
	
	
	
	
	
	
	
	
	
	
	
	
	
	
</defs><sodipodi:namedview
   pagecolor="#ffffff"
   bordercolor="#666666"
   borderopacity="1"
   objecttolerance="10"
   gridtolerance="10"
   guidetolerance="10"
   inkscape:pageopacity="0"
   inkscape:pageshadow="2"
   inkscape:window-width="1869"
   inkscape:window-height="1025"
   id="namedview73"
   showgrid="false"
   inkscape:zoom="0.878"
   inkscape:cx="455.4809"
   inkscape:cy="495.87829"
   inkscape:window-x="51"
   inkscape:window-y="27"
   inkscape:window-maximized="1"
   inkscape:current-layer="Layer_1" />
<style
   type="text/css"
   id="style2">
	.st0{fill:#FFFFFF;}
	.st1{fill:#E4E8EC;}
	.st2{fill:#FFE870;}
	.st3{fill:#FFCD68;}
	.st4{fill:#FFF1B6;}
	.st5{fill:none;stroke:#441A36;stroke-width:6;stroke-linecap:round;stroke-linejoin:round;stroke-miterlimit:10;}
	.st6{fill:#A0F0F2;}
	.st7{fill:#33E2E1;}
	.st8{fill:#FF9472;}
	.st9{fill:#EF7756;}
	.st10{fill:#FF4F7C;}
	.st11{fill:#FFBE86;}
	.st12{fill:#EC9D6E;}
	.st13{font-family:'Arial-BoldMT';}
	.st14{font-size:50px;}
</style>
<rect
   class="st0"
   width="1000"
   height="1000"
   id="rect4" />
<path
   class="st2"
   d="m 588.4,576 c 17,-45.6 30.9,-91.4 30.9,-149.8 0,-53 -19.2,-142.8 -55.6,-217.1 -3.4,-6.9 -10.3,-11.2 -18,-11.2 H 500 454.3 c -7.6,0 -14.6,4.4 -18,11.2 -36.4,74.3 -55.6,164.1 -55.6,217.1 0,58.4 14,104.2 30.9,149.8 6,16 -7.5,20.5 -7.5,37.5 0,17 8.4,17 8.4,34 0,17 -8.4,17 -8.4,34 0,17 8.4,17 8.4,34 0,17 -8.4,17 -8.4,34 0,50.2 42.8,90.9 95.9,91.7 53.1,-0.8 95.9,-41.6 95.9,-91.7 0,-17 -8.4,-17 -8.4,-34 0,-17 8.4,-17 8.4,-34 0,-17 -8.4,-17 -8.4,-34 0,-17 8.4,-17 8.4,-34 0,-17 -13.5,-21.5 -7.5,-37.5 z"
   id="path8" /><path
   class="st3"
   d="m 503.1,732.5 c -18.9,0 -34.2,15.3 -34.2,34.2 0,18.9 15.3,34.2 34.2,34.2 18.9,0 34.2,-15.3 34.2,-34.2 0,-18.9 -15.4,-34.2 -34.2,-34.2 z"
   id="path10" /><g
   id="g18">
		<circle
   class="st3"
   cx="500.60001"
   cy="553.70001"
   r="21.1"
   id="circle12" />
		<path
   class="st3"
   d="m 559,551.7 -26.2,-18.5 c -0.9,-0.6 -2.1,-0.7 -3.1,-0.2 -1,0.5 -1.6,1.5 -1.6,2.7 v 37 c 0,1.1 0.6,2.1 1.6,2.7 0.4,0.2 0.9,0.3 1.4,0.3 0.6,0 1.2,-0.2 1.7,-0.6 L 559,556.6 c 0.8,-0.6 1.3,-1.5 1.3,-2.4 0,-0.9 -0.5,-2 -1.3,-2.5 z"
   id="path14" />
		<path
   class="st3"
   d="m 471.8,532.9 c -1,-0.5 -2.2,-0.4 -3.1,0.2 l -26.2,18.5 c -0.8,0.6 -1.3,1.5 -1.3,2.4 0,0.9 0.5,1.9 1.3,2.4 l 26.2,18.5 c 0.5,0.4 1.1,0.6 1.7,0.6 0.5,0 0.9,-0.1 1.4,-0.3 1,-0.5 1.6,-1.5 1.6,-2.7 v -37 c 0,-1 -0.6,-2 -1.6,-2.6 z"
   id="path16" />
	</g><path
   class="st4"
   d="m 415.1,749.5 c 0,-17 8.4,-17 8.4,-34 0,-17 -8.4,-17 -8.4,-34 0,-17 8.4,-17 8.4,-34 0,-17 -8.4,-17 -8.4,-34 0,-17 13.5,-21.5 7.5,-37.5 -17,-45.6 -30.9,-91.4 -30.9,-149.8 0,-53 19.2,-142.8 55.6,-217.1 3.4,-6.9 10.3,-11.2 18,-11.2 h -11 c -7.6,0 -14.6,4.4 -18,11.2 -36.4,74.3 -55.6,164.1 -55.6,217.1 0,58.4 14,104.2 30.9,149.8 6,16 -7.5,20.5 -7.5,37.5 0,17 8.4,17 8.4,34 0,17 -8.4,17 -8.4,34 0,17 8.4,17 8.4,34 0,17 -8.4,17 -8.4,34 0,50.2 42.8,90.9 95.9,91.7 1.8,0 3.7,-0.1 5.5,-0.2 -50.5,-3.5 -90.4,-43.1 -90.4,-91.5 z"
   id="path20" /><path
   class="st3"
   d="m 588.4,576 c 17,-45.6 30.9,-91.4 30.9,-149.8 0,-53 -19.2,-142.8 -55.6,-217.1 -3.4,-6.9 -10.3,-11.2 -18,-11.2 h -6 c 36.3,74.2 55.5,163.9 55.5,216.7 0,58.4 -14,104.2 -30.9,149.8 -6,16 7.5,20.5 7.5,37.5 0,17 -8.4,17 -8.4,34 0,17 8.4,17 8.4,34 0,17 -8.4,17 -8.4,34 0,17 8.4,17 8.4,34 0,50.2 -42.8,90.9 -95.9,91.7 -10.5,-0.2 -20.7,-1.9 -30.1,-5 15.4,10.2 34.1,16.2 54.3,16.5 53.1,-0.8 95.9,-41.6 95.9,-91.7 0,-17 -8.4,-17 -8.4,-34 0,-17 8.4,-17 8.4,-34 0,-17 -8.4,-17 -8.4,-34 0,-17 8.4,-17 8.4,-34 -0.1,-16.9 -13.6,-21.4 -7.6,-37.4 z"
   id="path22" /><path
   class="st5"
   d="m 588.4,576 c 17,-45.6 30.9,-91.4 30.9,-149.8 0,-53 -19.2,-142.8 -55.6,-217.1 -3.4,-6.9 -10.3,-11.2 -18,-11.2 H 500 454.3 c -7.6,0 -14.6,4.4 -18,11.2 -36.4,74.3 -55.6,164.1 -55.6,217.1 0,58.4 14,104.2 30.9,149.8 6,16 -7.5,20.5 -7.5,37.5 0,17 8.4,17 8.4,34 0,17 -8.4,17 -8.4,34 0,17 8.4,17 8.4,34 0,17 -8.4,17 -8.4,34 0,50.2 42.8,90.9 95.9,91.7 53.1,-0.8 95.9,-41.6 95.9,-91.7 0,-17 -8.4,-17 -8.4,-34 0,-17 8.4,-17 8.4,-34 0,-17 -8.4,-17 -8.4,-34 0,-17 8.4,-17 8.4,-34 0,-17 -13.5,-21.5 -7.5,-37.5 z"
   id="path24" /><g
   id="g34">
		<circle
   class="st6"
   cx="500"
   cy="759"
   r="31.200001"
   id="circle26" />
		<path
   class="st7"
   d="m 515.5,732 c 3.9,5.2 6.1,11.6 6.1,18.6 0,17.2 -14,31.2 -31.2,31.2 -5.7,0 -11,-1.5 -15.5,-4.2 5.7,7.7 14.8,12.6 25.1,12.6 17.2,0 31.2,-14 31.2,-31.2 0,-11.6 -6.3,-21.7 -15.7,-27 z"
   id="path28" />
		
			<ellipse
   transform="matrix(0.9678,-0.2517,0.2517,0.9678,-173.5237,148.7058)"
   class="st0"
   cx="494.5"
   cy="752.70001"
   rx="14.8"
   ry="11.5"
   id="ellipse30" />
		<circle
   class="st5"
   cx="500"
   cy="759"
   r="31.200001"
   id="circle32" />
	</g><g
   id="g42">
		<path
   class="st8"
   d="m 427.9,323.6 c -0.3,27.2 0.9,68.2 2,99.2 1.7,37 31,85.9 69.9,85.9 39.4,0 68.2,-49 69.9,-85.9 1.1,-31 2.5,-72 2.3,-99.2 z"
   id="path36" />
		<path
   class="st9"
   d="m 572.1,323.6 h -13.4 c -0.2,26.2 -1.4,59.6 -2.3,85.9 -1.7,37 -30.5,85.9 -69.9,85.9 -12.1,0 -23.3,-4.7 -33,-12.4 12.1,15.1 28.2,25.7 46.3,25.7 39.4,0 68.2,-49 69.9,-85.9 1.2,-31 2.6,-72 2.4,-99.2 z"
   id="path38" />
		<path
   class="st5"
   d="m 427.9,323.6 c -0.3,27.2 0.9,68.2 2,99.2 1.7,37 31,85.9 69.9,85.9 39.4,0 68.2,-49 69.9,-85.9 1.1,-31 2.5,-72 2.3,-99.2 z"
   id="path40" />
	</g><path
   class="st10"
   d="m 543.6,431.6 h -87.1 c -4.4,0 -8,-3.6 -8,-8 v -57.3 c 0,-4.4 3.6,-8 8,-8 h 87.1 c 4.4,0 8,3.6 8,8 v 57.3 c 0,4.4 -3.6,8 -8,8 z"
   id="path44" /><path
   class="st5"
   d="m 543.6,431.6 h -87.1 c -4.4,0 -8,-3.6 -8,-8 v -57.3 c 0,-4.4 3.6,-8 8,-8 h 87.1 c 4.4,0 8,3.6 8,8 v 57.3 c 0,4.4 -3.6,8 -8,8 z"
   id="path46" /><path
   class="st11"
   d="m 500,197.9 h -45.7 c -7.6,0 -14.6,4.4 -18,11.2 -8.1,16.6 -15.4,33.9 -21.8,51.5 h 170.8 c -6.4,-17.6 -13.7,-34.9 -21.8,-51.5 -3.4,-6.9 -10.3,-11.2 -18,-11.2 z"
   id="path48" /><path
   class="st12"
   d="m 585.4,260.6 v 0 c -0.6,-1.7 -1.3,-3.5 -1.9,-5.2 -0.2,-0.6 -0.4,-1.2 -0.7,-1.8 -0.6,-1.5 -1.2,-3.1 -1.8,-4.6 -0.3,-0.8 -0.6,-1.6 -0.9,-2.4 -0.6,-1.4 -1.1,-2.8 -1.7,-4.2 -0.4,-0.9 -0.8,-1.9 -1.1,-2.8 -0.5,-1.3 -1.1,-2.6 -1.6,-3.8 -0.4,-1.1 -0.9,-2.1 -1.4,-3.2 -0.5,-1.2 -1,-2.3 -1.5,-3.5 -0.5,-1.2 -1.1,-2.4 -1.6,-3.6 -0.5,-1 -0.9,-2.1 -1.4,-3.1 -0.6,-1.4 -1.3,-2.9 -2,-4.3 -0.4,-0.8 -0.7,-1.6 -1.1,-2.4 -1,-2.2 -2.1,-4.4 -3.2,-6.6 -3.4,-6.9 -10.3,-11.2 -18,-11.2 h -6 c 9.8,20.1 18.4,41.4 25.7,62.7 z"
   id="path50" /><path
   class="st5"
   d="m 500,197.9 h -45.7 c -7.6,0 -14.6,4.4 -18,11.2 -8.1,16.6 -15.4,33.9 -21.8,51.5 h 170.8 c -6.4,-17.6 -13.7,-34.9 -21.8,-51.5 -3.4,-6.9 -10.3,-11.2 -18,-11.2 z"
   id="path52" /><g
   id="g66">
		
			<circle
   transform="matrix(0.9239,-0.3827,0.3827,0.9239,-171.5508,232.9564)"
   class="st0"
   cx="499.79999"
   cy="547.70001"
   id="ellipse54"
   r="18.1" />
		
			<circle
   transform="matrix(0.9239,-0.3827,0.3827,0.9239,-171.5508,232.9564)"
   class="st5"
   cx="499.79999"
   cy="547.70001"
   id="ellipse56"
   r="18.1" />
		<polygon
   class="st0"
   points="530.4,566.6 530.4,529.6 556.5,548.1 "
   id="polygon58" />
		<polygon
   class="st5"
   points="530.4,566.6 530.4,529.6 556.5,548.1 "
   id="polygon60" />
		<polygon
   class="st0"
   points="469.6,566.6 469.6,529.6 443.5,548.1 "
   id="polygon62" />
		<polygon
   class="st5"
   points="469.6,566.6 469.6,529.6 443.5,548.1 "
   id="polygon64" />
	</g><text
   class="st0 st13 st14"
   id="text68"
   x="467.6004"
   y="415.92999">90°</text>
</svg>
